<svg xmlns="http://www.w3.org/2000/svg" viewBox="0 0 64 64" role="img" aria-label="Veverka">
<title>Veverka</title>
<circle cx="32" cy="32" r="30" fill="#6FA7A0" stroke="#30383A" stroke-width="2.5"/>
<g stroke="#30383A" stroke-width="2.2" stroke-linecap="round" stroke-linejoin="round">
<path fill="#C9693A" d="M39 16c10-8 18 0 13 9-2 4-6 4-7 8 6-1 11 5 8 11-4 8-13 8-19 2 6-5 9-13 5-20Z"/>
<path fill="#C9693A" d="M18 28c-2-6 0-11 5-13l2 6c6-2 11 2 11 8v11c0 8-5 14-12 14S12 48 12 40c0-5 2-9 6-12Z"/>
<path fill="#F7F0DE" d="M18 31c4-4 9-4 13-1-1 9-4 16-8 17-5 0-7-7-5-16Z"/>
<circle cx="22" cy="27" r="1.8" fill="#30383A" stroke="none"/><circle cx="16" cy="30" r="1.6" fill="#30383A" stroke="none"/>
<path fill="#D8B57F" d="M17 40c3-3 8-3 11 0l-1 5c-3 2-6 2-9 0Z"/></g>
</svg>